<svg xmlns="http://www.w3.org/2000/svg" version="1.1" xmlns:xlink="http://www.w3.org/1999/xlink" xmlns:svgjs="http://svgjs.com/svgjs" width="512" height="512" x="0" y="0" viewBox="0 0 512.001 512.001" style="enable-background:new 0 0 512 512" xml:space="preserve"><g><path d="m408.418 39.065-362.955 70.38a8.04 8.04 0 0 0-6.361 9.421l74.971 386.625a8.04 8.04 0 0 0 9.421 6.361l261.038-50.618 88.515-131.099-55.208-284.71a8.04 8.04 0 0 0-9.421-6.36z" style="" fill="#f6a7c5" data-original="#f6a7c5"></path><path d="m384.532 461.233 88.515-131.099-101.917 19.763a8.04 8.04 0 0 0-6.361 9.421l19.763 101.915zM104.515 97.996l40.882 78.824 88.41-16.074 6.36-89.055z" style="" fill="#f082a6" data-original="#f082a6"></path><path d="M245.637.951a8.036 8.036 0 0 0-8.25.399l-19.654 13.103L198.078 1.35a8.036 8.036 0 0 0-8.916 0l-19.654 13.103L149.854 1.35c-5.246-3.497-12.495.4-12.495 6.687v160.746a8.037 8.037 0 0 0 8.037 8.037h96.447a8.037 8.037 0 0 0 8.037-8.037V8.037a8.036 8.036 0 0 0-4.243-7.086z" style="" fill="#fcde76" data-original="#fcde76"></path></g></svg>