<svg xmlns="http://www.w3.org/2000/svg" version="1.1" xmlns:xlink="http://www.w3.org/1999/xlink" xmlns:svgjs="http://svgjs.com/svgjs" width="512" height="512" x="0" y="0" viewBox="0 0 512 512" style="enable-background:new 0 0 512 512" xml:space="preserve"><g><path d="m480.529 320.301-36.964-190.624a7.509 7.509 0 0 0-8.808-5.947 7.517 7.517 0 0 0-5.948 8.808l35.534 183.247-102.133 19.806a7.517 7.517 0 0 0-5.948 8.808l19.805 102.135-253.451 49.146-74.96-386.57 91.212-17.687v76.406a7.516 7.516 0 0 0 7.515 7.515h96.188a7.516 7.516 0 0 0 7.515-7.515V69.857L410.62 38.728l11.496 59.284a7.517 7.517 0 0 0 8.808 5.947 7.517 7.517 0 0 0 5.948-8.808l-12.925-66.662c-.779-4.013-4.788-6.729-8.808-5.947L250.086 54.547V7.515c0-5.881-6.778-9.524-11.683-6.252l-19.879 13.253-19.879-13.254a7.513 7.513 0 0 0-8.336 0L170.43 14.515 150.551 1.262c-4.905-3.27-11.683.37-11.683 6.252v68.599L37.418 95.786c-4.014.778-6.726 4.788-5.947 8.808l77.82 401.325c.779 4.018 4.787 6.729 8.808 5.947l268.205-52.008a7.603 7.603 0 0 0 4.797-3.172l88.277-130.748c.231-.344.43-.713.602-1.091a7.558 7.558 0 0 0 .549-4.546zM153.897 21.556l12.364 8.243a7.513 7.513 0 0 0 8.336 0l19.879-13.253 19.879 13.253a7.513 7.513 0 0 0 8.336 0l12.364-8.243v138.758h-81.159V21.556zM388.798 433.24l-16.35-84.324 84.323-16.352-67.973 100.676z" fill="#9E9E9E" data-original="#000000"></path></g></svg>